# xmcd
#
# Track frame offsets:
#	150
#	25295
#	39648
#	55975
#	77958
#	96142
#	110576
#	127263
#	148919
#	170028
#	186571
#	200172
#	214456
#	228528
#	247260
#	262969
#	277645
#
# Disc length: 3871 seconds
#
# Revision: 0
# Processed by: cddbd v1.4PL0 Copyright (c) Steve Scherf et al.
# Submitted via: audiograbber 1.82.02
#
DISCID=150f1d11
DTITLE=Various Artist - It`s Our Backyard Vol 19
DYEAR=1900
DGENRE=Country
TTITLE0=Lee Roy Parnell - Crossin Over
TTITLE1=Melinda Shneider - Superwoman
TTITLE2=Adam Harvey - Workin Overtime
TTITLE3=Felicity - This is Life
TTITLE4=Kevin Welch - When the Sun Shines Down on Me
TTITLE5=Tamara Stewart - Wild Child
TTITLE6=Kim Cheshire - Big River
TTITLE7=The Flood - Don't Feel Right
TTITLE8=Lyn Bowtell - Where In The World
TTITLE9=The Denahys - Fields of Gold
TTITLE10=Hunter and Suzy Owens Band - She Drinks to Remember
TTITLE11=Bluegrass Parkway - Maria`s Eyes
TTITLE12=Karen O`Shea - Just a Little Bit More
TTITLE13=Andy Baylor`s Cajun Combo - Areadiana
TTITLE14=Keith Glass - It'll Come To Me
TTITLE15=Kevin Bennett and James Gillard - Andy
TTITLE16=Feral Swing Katz - Bottle Baby Boogie
EXTD=
EXTT0=
EXTT1=
EXTT2=
EXTT3=
EXTT4=
EXTT5=
EXTT6=
EXTT7=
EXTT8=
EXTT9=
EXTT10=
EXTT11=
EXTT12=
EXTT13=
EXTT14=
EXTT15=
EXTT16=
PLAYORDER=
